<mxfile host="Electron" modified="2023-10-11T20:30:14.146Z" agent="Mozilla/5.0 (Windows NT 10.0; Win64; x64) AppleWebKit/537.36 (KHTML, like Gecko) draw.io/22.0.2 Chrome/114.0.5735.289 Electron/25.8.4 Safari/537.36" etag="u9q2TzWHprgGnoIyYRGG" version="22.0.2" type="device">
  <diagram name="Page-1" id="BKSnyIFmyw0X1UvQd7-r">
    <mxGraphModel dx="1036" dy="606" grid="1" gridSize="10" guides="1" tooltips="1" connect="1" arrows="1" fold="1" page="1" pageScale="1" pageWidth="850" pageHeight="1100" math="0" shadow="0">
      <root>
        <mxCell id="0" />
        <mxCell id="1" parent="0" />
        <mxCell id="M4f_d1ddwD5tl0oEyUJI-14" value="" style="ellipse;whiteSpace=wrap;html=1;" vertex="1" parent="1">
          <mxGeometry x="557.5" y="890" width="65" height="60" as="geometry" />
        </mxCell>
        <mxCell id="M4f_d1ddwD5tl0oEyUJI-22" style="edgeStyle=orthogonalEdgeStyle;rounded=0;orthogonalLoop=1;jettySize=auto;html=1;" edge="1" parent="1" source="M4f_d1ddwD5tl0oEyUJI-20">
          <mxGeometry relative="1" as="geometry">
            <mxPoint x="250" y="710" as="targetPoint" />
          </mxGeometry>
        </mxCell>
        <mxCell id="M4f_d1ddwD5tl0oEyUJI-20" value="Display Podcasts" style="whiteSpace=wrap;html=1;aspect=fixed;" vertex="1" parent="1">
          <mxGeometry x="210" y="490" width="80" height="80" as="geometry" />
        </mxCell>
        <mxCell id="M4f_d1ddwD5tl0oEyUJI-21" value="Store Podcast State Chart" style="text;html=1;align=center;verticalAlign=middle;resizable=0;points=[];autosize=1;strokeColor=none;fillColor=none;" vertex="1" parent="1">
          <mxGeometry x="140" y="408" width="160" height="30" as="geometry" />
        </mxCell>
        <mxCell id="M4f_d1ddwD5tl0oEyUJI-23" value="Select Podcast" style="text;html=1;align=center;verticalAlign=middle;resizable=0;points=[];autosize=1;strokeColor=none;fillColor=none;" vertex="1" parent="1">
          <mxGeometry x="250" y="630" width="100" height="30" as="geometry" />
        </mxCell>
        <mxCell id="M4f_d1ddwD5tl0oEyUJI-25" style="edgeStyle=orthogonalEdgeStyle;rounded=0;orthogonalLoop=1;jettySize=auto;html=1;entryX=-0.015;entryY=0.423;entryDx=0;entryDy=0;entryPerimeter=0;" edge="1" parent="1" source="M4f_d1ddwD5tl0oEyUJI-24" target="M4f_d1ddwD5tl0oEyUJI-20">
          <mxGeometry relative="1" as="geometry">
            <mxPoint x="130" y="520" as="targetPoint" />
            <Array as="points">
              <mxPoint x="130" y="750" />
              <mxPoint x="130" y="524" />
            </Array>
          </mxGeometry>
        </mxCell>
        <mxCell id="M4f_d1ddwD5tl0oEyUJI-28" style="edgeStyle=orthogonalEdgeStyle;rounded=0;orthogonalLoop=1;jettySize=auto;html=1;" edge="1" parent="1" source="M4f_d1ddwD5tl0oEyUJI-24">
          <mxGeometry relative="1" as="geometry">
            <mxPoint x="250" y="960" as="targetPoint" />
          </mxGeometry>
        </mxCell>
        <mxCell id="M4f_d1ddwD5tl0oEyUJI-24" value="Vaildating Podcast" style="whiteSpace=wrap;html=1;aspect=fixed;" vertex="1" parent="1">
          <mxGeometry x="210" y="710" width="80" height="80" as="geometry" />
        </mxCell>
        <mxCell id="M4f_d1ddwD5tl0oEyUJI-26" value="Invalid File" style="text;html=1;align=center;verticalAlign=middle;resizable=0;points=[];autosize=1;strokeColor=none;fillColor=none;" vertex="1" parent="1">
          <mxGeometry x="50" y="610" width="80" height="30" as="geometry" />
        </mxCell>
        <mxCell id="M4f_d1ddwD5tl0oEyUJI-29" value="Valid Podcast" style="text;html=1;align=center;verticalAlign=middle;resizable=0;points=[];autosize=1;strokeColor=none;fillColor=none;" vertex="1" parent="1">
          <mxGeometry x="250" y="850" width="100" height="30" as="geometry" />
        </mxCell>
        <mxCell id="M4f_d1ddwD5tl0oEyUJI-31" style="edgeStyle=orthogonalEdgeStyle;rounded=0;orthogonalLoop=1;jettySize=auto;html=1;" edge="1" parent="1" source="M4f_d1ddwD5tl0oEyUJI-30">
          <mxGeometry relative="1" as="geometry">
            <mxPoint x="250" y="1140" as="targetPoint" />
          </mxGeometry>
        </mxCell>
        <mxCell id="M4f_d1ddwD5tl0oEyUJI-30" value="Display Save Locations" style="whiteSpace=wrap;html=1;aspect=fixed;" vertex="1" parent="1">
          <mxGeometry x="210" y="960" width="80" height="80" as="geometry" />
        </mxCell>
        <mxCell id="M4f_d1ddwD5tl0oEyUJI-36" style="edgeStyle=orthogonalEdgeStyle;rounded=0;orthogonalLoop=1;jettySize=auto;html=1;entryX=-0.005;entryY=0.413;entryDx=0;entryDy=0;entryPerimeter=0;" edge="1" parent="1" source="M4f_d1ddwD5tl0oEyUJI-32" target="M4f_d1ddwD5tl0oEyUJI-20">
          <mxGeometry relative="1" as="geometry">
            <mxPoint x="20" y="510" as="targetPoint" />
            <Array as="points">
              <mxPoint x="20" y="1180" />
              <mxPoint x="20" y="523" />
            </Array>
          </mxGeometry>
        </mxCell>
        <mxCell id="M4f_d1ddwD5tl0oEyUJI-32" value="Uploading File" style="whiteSpace=wrap;html=1;aspect=fixed;" vertex="1" parent="1">
          <mxGeometry x="210" y="1140" width="80" height="80" as="geometry" />
        </mxCell>
        <mxCell id="M4f_d1ddwD5tl0oEyUJI-33" value="Select Save Location" style="text;html=1;align=center;verticalAlign=middle;resizable=0;points=[];autosize=1;strokeColor=none;fillColor=none;" vertex="1" parent="1">
          <mxGeometry x="240" y="1070" width="140" height="30" as="geometry" />
        </mxCell>
        <mxCell id="M4f_d1ddwD5tl0oEyUJI-34" style="edgeStyle=orthogonalEdgeStyle;rounded=0;orthogonalLoop=1;jettySize=auto;html=1;" edge="1" parent="1" source="M4f_d1ddwD5tl0oEyUJI-32">
          <mxGeometry relative="1" as="geometry">
            <mxPoint x="290" y="993" as="targetPoint" />
            <Array as="points">
              <mxPoint x="410" y="1180" />
              <mxPoint x="410" y="993" />
            </Array>
          </mxGeometry>
        </mxCell>
        <mxCell id="M4f_d1ddwD5tl0oEyUJI-35" value="Upload Error" style="text;html=1;align=center;verticalAlign=middle;resizable=0;points=[];autosize=1;strokeColor=none;fillColor=none;" vertex="1" parent="1">
          <mxGeometry x="410" y="1070" width="90" height="30" as="geometry" />
        </mxCell>
        <mxCell id="M4f_d1ddwD5tl0oEyUJI-37" value="Upload Succes" style="text;html=1;align=center;verticalAlign=middle;resizable=0;points=[];autosize=1;strokeColor=none;fillColor=none;" vertex="1" parent="1">
          <mxGeometry x="30" y="828" width="100" height="30" as="geometry" />
        </mxCell>
      </root>
    </mxGraphModel>
  </diagram>
</mxfile>
